<mxfile host="65bd71144e">
    <diagram id="QTnWu7jIufpeKar78dvY" name="Page-1">
        <mxGraphModel dx="744" dy="571" grid="1" gridSize="10" guides="1" tooltips="1" connect="1" arrows="1" fold="1" page="1" pageScale="1" pageWidth="1169" pageHeight="827" math="0" shadow="0">
            <root>
                <mxCell id="0"/>
                <mxCell id="1" parent="0"/>
                <mxCell id="2" value="user.Service&lt;br&gt;(interface)" style="rounded=0;whiteSpace=wrap;html=1;" vertex="1" parent="1">
                    <mxGeometry x="180" y="100" width="120" height="60" as="geometry"/>
                </mxCell>
                <mxCell id="3" value="token.Service&lt;br&gt;(interface)" style="rounded=0;whiteSpace=wrap;html=1;" vertex="1" parent="1">
                    <mxGeometry x="465" y="100" width="120" height="60" as="geometry"/>
                </mxCell>
                <mxCell id="4" value="TokenServiceImpl&lt;br&gt;(struct)" style="rounded=0;whiteSpace=wrap;html=1;" vertex="1" parent="1">
                    <mxGeometry x="465" y="230" width="120" height="60" as="geometry"/>
                </mxCell>
                <mxCell id="5" value="UserServiceImpl&lt;br&gt;(struct)" style="rounded=0;whiteSpace=wrap;html=1;" vertex="1" parent="1">
                    <mxGeometry x="180" y="230" width="120" height="60" as="geometry"/>
                </mxCell>
                <mxCell id="6" value="UserServiceMock&lt;br&gt;(struct)" style="rounded=0;whiteSpace=wrap;html=1;" vertex="1" parent="1">
                    <mxGeometry x="180" y="350" width="120" height="60" as="geometry"/>
                </mxCell>
                <mxCell id="7" value="UserServiceRpc&lt;br&gt;(struct)" style="rounded=0;whiteSpace=wrap;html=1;" vertex="1" parent="1">
                    <mxGeometry x="180" y="470" width="120" height="60" as="geometry"/>
                </mxCell>
                <mxCell id="8" value="" style="endArrow=classic;html=1;exitX=0;exitY=0.5;exitDx=0;exitDy=0;entryX=1;entryY=0.5;entryDx=0;entryDy=0;" edge="1" parent="1" source="4" target="2">
                    <mxGeometry width="50" height="50" relative="1" as="geometry">
                        <mxPoint x="360" y="280" as="sourcePoint"/>
                        <mxPoint x="410" y="230" as="targetPoint"/>
                        <Array as="points">
                            <mxPoint x="380" y="260"/>
                            <mxPoint x="380" y="130"/>
                        </Array>
                    </mxGeometry>
                </mxCell>
            </root>
        </mxGraphModel>
    </diagram>
</mxfile>